<svg xmlns="http://www.w3.org/2000/svg" xmlns:xlink="http://www.w3.org/1999/xlink" width="50" zoomAndPan="magnify" viewBox="0 0 37.5 37.499999" height="50" preserveAspectRatio="xMidYMid meet" version="1.0"><defs><g/><clipPath id="3584854106"><path d="M 13 3 L 24 3 L 24 9.691406 L 13 9.691406 Z M 13 3 " clip-rule="nonzero"/></clipPath><clipPath id="d98f4fe1e5"><path d="M 17 2.289062 L 20 2.289062 L 20 5 L 17 5 Z M 17 2.289062 " clip-rule="nonzero"/></clipPath><clipPath id="0e39ebdaca"><path d="M 12.945312 4 L 15 4 L 15 6 L 12.945312 6 Z M 12.945312 4 " clip-rule="nonzero"/></clipPath><clipPath id="7adecc0aef"><path d="M 22 4 L 24.046875 4 L 24.046875 6 L 22 6 Z M 22 4 " clip-rule="nonzero"/></clipPath></defs><g clip-path="url(#3584854106)"><path fill="#ffcb73" d="M 23.390625 5.402344 C 23.273438 5.941406 22.898438 7.464844 22.382812 7.464844 C 21.761719 7.464844 21.625 4.933594 21.625 4.933594 L 21.257812 4.902344 C 21.257812 4.902344 21.070312 7.652344 20.113281 7.652344 C 19.15625 7.652344 19 3.492188 19 3.492188 L 17.992188 3.492188 C 17.992188 3.492188 17.835938 7.652344 16.878906 7.652344 C 15.917969 7.652344 15.734375 4.902344 15.734375 4.902344 L 15.367188 4.933594 C 15.367188 4.933594 15.230469 7.464844 14.605469 7.464844 C 14.09375 7.464844 13.714844 5.941406 13.597656 5.402344 L 13.265625 5.402344 C 13.609375 6.375 13.738281 9.78125 13.738281 9.78125 L 23.253906 9.78125 C 23.253906 9.78125 23.382812 6.375 23.722656 5.402344 L 23.390625 5.402344 " fill-opacity="1" fill-rule="nonzero"/></g><g clip-path="url(#d98f4fe1e5)"><path fill="#ffcb73" d="M 19.378906 3.171875 C 19.378906 3.660156 18.984375 4.054688 18.496094 4.054688 C 18.007812 4.054688 17.613281 3.660156 17.613281 3.171875 C 17.613281 2.683594 18.007812 2.289062 18.496094 2.289062 C 18.984375 2.289062 19.378906 2.683594 19.378906 3.171875 " fill-opacity="1" fill-rule="nonzero"/></g><path fill="#ffcb73" d="M 16.164062 4.699219 C 16.164062 5.050781 15.875 5.339844 15.523438 5.339844 C 15.167969 5.339844 14.882812 5.050781 14.882812 4.699219 C 14.882812 4.34375 15.167969 4.054688 15.523438 4.054688 C 15.875 4.054688 16.164062 4.34375 16.164062 4.699219 " fill-opacity="1" fill-rule="nonzero"/><g clip-path="url(#0e39ebdaca)"><path fill="#ffcb73" d="M 14.03125 5.4375 C 14.03125 5.738281 13.789062 5.980469 13.492188 5.980469 C 13.191406 5.980469 12.949219 5.738281 12.949219 5.4375 C 12.949219 5.136719 13.191406 4.894531 13.492188 4.894531 C 13.789062 4.894531 14.03125 5.136719 14.03125 5.4375 " fill-opacity="1" fill-rule="nonzero"/></g><path fill="#ffcb73" d="M 20.835938 4.699219 C 20.835938 5.050781 21.121094 5.339844 21.476562 5.339844 C 21.832031 5.339844 22.117188 5.050781 22.117188 4.699219 C 22.117188 4.34375 21.832031 4.054688 21.476562 4.054688 C 21.121094 4.054688 20.835938 4.34375 20.835938 4.699219 " fill-opacity="1" fill-rule="nonzero"/><g clip-path="url(#7adecc0aef)"><path fill="#ffcb73" d="M 22.964844 5.4375 C 22.964844 5.738281 23.207031 5.980469 23.507812 5.980469 C 23.808594 5.980469 24.050781 5.738281 24.050781 5.4375 C 24.050781 5.136719 23.808594 4.894531 23.507812 4.894531 C 23.207031 4.894531 22.964844 5.136719 22.964844 5.4375 " fill-opacity="1" fill-rule="nonzero"/></g><g fill="#ffcb73" fill-opacity="1"><g transform="translate(11.003524, 31.38498)"><g><path d="M 0.59375 0.015625 C 0.5 0.015625 0.414062 -0.00390625 0.34375 -0.046875 C 0.269531 -0.0859375 0.210938 -0.148438 0.171875 -0.234375 C 0.128906 -0.328125 0.109375 -0.4375 0.109375 -0.5625 C 0.109375 -0.695312 0.128906 -0.804688 0.171875 -0.890625 C 0.222656 -0.972656 0.285156 -1.035156 0.359375 -1.078125 C 0.441406 -1.128906 0.53125 -1.15625 0.625 -1.15625 C 0.738281 -1.15625 0.828125 -1.132812 0.890625 -1.09375 C 0.960938 -1.050781 1.015625 -0.992188 1.046875 -0.921875 L 0.96875 -0.875 L 0.9375 -0.875 C 0.90625 -0.925781 0.863281 -0.960938 0.8125 -0.984375 C 0.769531 -1.015625 0.707031 -1.03125 0.625 -1.03125 C 0.375 -1.03125 0.25 -0.875 0.25 -0.5625 C 0.25 -0.40625 0.28125 -0.289062 0.34375 -0.21875 C 0.40625 -0.144531 0.492188 -0.109375 0.609375 -0.109375 C 0.710938 -0.109375 0.789062 -0.128906 0.84375 -0.171875 C 0.894531 -0.222656 0.921875 -0.300781 0.921875 -0.40625 L 0.921875 -0.5 L 0.59375 -0.5 L 0.59375 -0.609375 L 1.0625 -0.609375 L 1.0625 0 L 0.9375 0 L 0.9375 -0.15625 L 0.921875 -0.15625 C 0.890625 -0.09375 0.84375 -0.046875 0.78125 -0.015625 C 0.726562 0.00390625 0.664062 0.015625 0.59375 0.015625 Z M 0.59375 0.015625 "/></g></g></g><g fill="#ffcb73" fill-opacity="1"><g transform="translate(12.664537, 31.38498)"><g><path d="M 1.03125 0 L 0.875 0 L 0.78125 -0.3125 L 0.296875 -0.3125 L 0.1875 0 L 0.046875 0 L 0.4375 -1.140625 L 0.625 -1.140625 Z M 0.53125 -1 L 0.328125 -0.421875 L 0.734375 -0.421875 L 0.546875 -1 Z M 0.53125 -1 "/></g></g></g><g fill="#ffcb73" fill-opacity="1"><g transform="translate(14.211932, 31.38498)"><g><path d="M 0.171875 0 L 0.171875 -1.140625 L 0.609375 -1.140625 C 0.671875 -1.140625 0.726562 -1.128906 0.78125 -1.109375 C 0.832031 -1.085938 0.867188 -1.054688 0.890625 -1.015625 C 0.910156 -0.972656 0.921875 -0.921875 0.921875 -0.859375 C 0.921875 -0.804688 0.90625 -0.757812 0.875 -0.71875 C 0.851562 -0.6875 0.820312 -0.660156 0.78125 -0.640625 L 0.78125 -0.625 C 0.851562 -0.601562 0.90625 -0.566406 0.9375 -0.515625 C 0.976562 -0.460938 1 -0.398438 1 -0.328125 C 1 -0.222656 0.96875 -0.140625 0.90625 -0.078125 C 0.84375 -0.0234375 0.753906 0 0.640625 0 Z M 0.59375 -0.65625 C 0.65625 -0.65625 0.703125 -0.671875 0.734375 -0.703125 C 0.773438 -0.742188 0.796875 -0.789062 0.796875 -0.84375 C 0.796875 -0.90625 0.773438 -0.953125 0.734375 -0.984375 C 0.703125 -1.015625 0.65625 -1.03125 0.59375 -1.03125 L 0.3125 -1.03125 L 0.3125 -0.65625 Z M 0.625 -0.109375 C 0.789062 -0.109375 0.875 -0.179688 0.875 -0.328125 C 0.875 -0.472656 0.789062 -0.546875 0.625 -0.546875 L 0.3125 -0.546875 L 0.3125 -0.109375 Z M 0.625 -0.109375 "/></g></g></g><g fill="#ffcb73" fill-opacity="1"><g transform="translate(15.785007, 31.38498)"><g><path d="M 0.171875 0 L 0.171875 -1.140625 L 0.578125 -1.140625 C 0.660156 -1.140625 0.726562 -1.125 0.78125 -1.09375 C 0.832031 -1.070312 0.867188 -1.035156 0.890625 -0.984375 C 0.921875 -0.941406 0.9375 -0.890625 0.9375 -0.828125 C 0.9375 -0.753906 0.914062 -0.695312 0.875 -0.65625 C 0.84375 -0.613281 0.789062 -0.578125 0.71875 -0.546875 L 0.71875 -0.53125 C 0.75 -0.519531 0.773438 -0.5 0.796875 -0.46875 C 0.828125 -0.4375 0.851562 -0.390625 0.875 -0.328125 L 0.96875 0 L 0.84375 0 L 0.71875 -0.34375 C 0.707031 -0.382812 0.691406 -0.414062 0.671875 -0.4375 C 0.660156 -0.46875 0.640625 -0.488281 0.609375 -0.5 C 0.578125 -0.507812 0.539062 -0.515625 0.5 -0.515625 L 0.3125 -0.515625 L 0.3125 0 Z M 0.578125 -0.625 C 0.648438 -0.625 0.703125 -0.640625 0.734375 -0.671875 C 0.773438 -0.703125 0.796875 -0.753906 0.796875 -0.828125 C 0.796875 -0.890625 0.773438 -0.9375 0.734375 -0.96875 C 0.703125 -1.007812 0.648438 -1.03125 0.578125 -1.03125 L 0.3125 -1.03125 L 0.3125 -0.625 Z M 0.578125 -0.625 "/></g></g></g><g fill="#ffcb73" fill-opacity="1"><g transform="translate(17.316838, 31.38498)"><g><path d="M 0.3125 0 L 0.171875 0 L 0.171875 -1.140625 L 0.3125 -1.140625 Z M 0.3125 0 "/></g></g></g><g fill="#ffcb73" fill-opacity="1"><g transform="translate(18.273573, 31.38498)"><g><path d="M 0.3125 -0.53125 L 0.3125 -0.109375 L 0.890625 -0.109375 L 0.890625 0 L 0.171875 0 L 0.171875 -1.140625 L 0.875 -1.140625 L 0.875 -1.03125 L 0.3125 -1.03125 L 0.3125 -0.640625 L 0.8125 -0.640625 L 0.8125 -0.53125 Z M 0.3125 -0.53125 "/></g></g></g><g fill="#ffcb73" fill-opacity="1"><g transform="translate(19.712797, 31.38498)"><g><path d="M 0.3125 -1.140625 L 0.3125 -0.109375 L 0.859375 -0.109375 L 0.859375 0 L 0.171875 0 L 0.171875 -1.140625 Z M 0.3125 -1.140625 "/></g></g></g><g fill="#ffcb73" fill-opacity="1"><g transform="translate(21.092877, 31.38498)"><g/></g></g><g fill="#ffcb73" fill-opacity="1"><g transform="translate(21.961675, 31.38498)"><g><path d="M 0.171875 0 L 0.171875 -1.140625 L 0.578125 -1.140625 C 0.660156 -1.140625 0.726562 -1.125 0.78125 -1.09375 C 0.832031 -1.070312 0.867188 -1.035156 0.890625 -0.984375 C 0.921875 -0.941406 0.9375 -0.890625 0.9375 -0.828125 C 0.9375 -0.753906 0.914062 -0.695312 0.875 -0.65625 C 0.84375 -0.613281 0.789062 -0.578125 0.71875 -0.546875 L 0.71875 -0.53125 C 0.75 -0.519531 0.773438 -0.5 0.796875 -0.46875 C 0.828125 -0.4375 0.851562 -0.390625 0.875 -0.328125 L 0.96875 0 L 0.84375 0 L 0.71875 -0.34375 C 0.707031 -0.382812 0.691406 -0.414062 0.671875 -0.4375 C 0.660156 -0.46875 0.640625 -0.488281 0.609375 -0.5 C 0.578125 -0.507812 0.539062 -0.515625 0.5 -0.515625 L 0.3125 -0.515625 L 0.3125 0 Z M 0.578125 -0.625 C 0.648438 -0.625 0.703125 -0.640625 0.734375 -0.671875 C 0.773438 -0.703125 0.796875 -0.753906 0.796875 -0.828125 C 0.796875 -0.890625 0.773438 -0.9375 0.734375 -0.96875 C 0.703125 -1.007812 0.648438 -1.03125 0.578125 -1.03125 L 0.3125 -1.03125 L 0.3125 -0.625 Z M 0.578125 -0.625 "/></g></g></g><g fill="#ffcb73" fill-opacity="1"><g transform="translate(23.493506, 31.38498)"><g><path d="M 0.3125 -0.53125 L 0.3125 -0.109375 L 0.890625 -0.109375 L 0.890625 0 L 0.171875 0 L 0.171875 -1.140625 L 0.875 -1.140625 L 0.875 -1.03125 L 0.3125 -1.03125 L 0.3125 -0.640625 L 0.8125 -0.640625 L 0.8125 -0.53125 Z M 0.3125 -0.53125 "/></g></g></g><g fill="#ffcb73" fill-opacity="1"><g transform="translate(24.93273, 31.38498)"><g><path d="M 0.3125 0 L 0.171875 0 L 0.171875 -1.140625 L 0.3125 -1.140625 Z M 0.3125 0 "/></g></g></g><g fill="#ffcb73" fill-opacity="1"><g transform="translate(25.889465, 31.38498)"><g><path d="M 0.5 0.015625 C 0.425781 0.015625 0.359375 0.00390625 0.296875 -0.015625 C 0.242188 -0.0351562 0.195312 -0.0625 0.15625 -0.09375 C 0.125 -0.125 0.0976562 -0.15625 0.078125 -0.1875 L 0.15625 -0.28125 L 0.171875 -0.28125 C 0.242188 -0.164062 0.351562 -0.109375 0.5 -0.109375 C 0.582031 -0.109375 0.644531 -0.125 0.6875 -0.15625 C 0.726562 -0.195312 0.75 -0.25 0.75 -0.3125 C 0.75 -0.34375 0.738281 -0.367188 0.71875 -0.390625 C 0.707031 -0.421875 0.6875 -0.445312 0.65625 -0.46875 C 0.625 -0.488281 0.582031 -0.503906 0.53125 -0.515625 L 0.40625 -0.546875 C 0.300781 -0.566406 0.222656 -0.601562 0.171875 -0.65625 C 0.128906 -0.707031 0.109375 -0.773438 0.109375 -0.859375 C 0.109375 -0.921875 0.125 -0.972656 0.15625 -1.015625 C 0.1875 -1.054688 0.226562 -1.085938 0.28125 -1.109375 C 0.332031 -1.140625 0.398438 -1.15625 0.484375 -1.15625 C 0.566406 -1.15625 0.632812 -1.140625 0.6875 -1.109375 C 0.75 -1.085938 0.800781 -1.054688 0.84375 -1.015625 L 0.78125 -0.921875 L 0.75 -0.921875 C 0.71875 -0.960938 0.679688 -0.988281 0.640625 -1 C 0.597656 -1.019531 0.546875 -1.03125 0.484375 -1.03125 C 0.398438 -1.03125 0.335938 -1.015625 0.296875 -0.984375 C 0.265625 -0.960938 0.25 -0.921875 0.25 -0.859375 C 0.25 -0.804688 0.257812 -0.765625 0.28125 -0.734375 C 0.3125 -0.710938 0.363281 -0.691406 0.4375 -0.671875 L 0.578125 -0.640625 C 0.679688 -0.609375 0.757812 -0.566406 0.8125 -0.515625 C 0.863281 -0.460938 0.890625 -0.394531 0.890625 -0.3125 C 0.890625 -0.25 0.875 -0.191406 0.84375 -0.140625 C 0.8125 -0.0859375 0.765625 -0.046875 0.703125 -0.015625 C 0.648438 0.00390625 0.582031 0.015625 0.5 0.015625 Z M 0.5 0.015625 "/></g></g></g><g fill="#e8e5e1" fill-opacity="1"><g transform="translate(10.866073, 26.865862)"><g><path d="M 14.34375 -8.28125 L 14.34375 -0.8125 C 13.175781 -0.425781 12.066406 -0.148438 11.015625 0.015625 C 9.972656 0.191406 9.09375 0.28125 8.375 0.28125 C 6 0.28125 4.140625 -0.335938 2.796875 -1.578125 C 1.453125 -2.816406 0.78125 -4.71875 0.78125 -7.28125 C 0.78125 -9.894531 1.488281 -11.851562 2.90625 -13.15625 C 4.320312 -14.457031 6.3125 -15.109375 8.875 -15.109375 C 10.21875 -15.109375 11.832031 -14.910156 13.71875 -14.515625 C 13.71875 -14.160156 13.679688 -13.640625 13.609375 -12.953125 C 13.546875 -12.265625 13.476562 -11.78125 13.40625 -11.5 L 12.46875 -11.515625 C 11.3125 -11.554688 10.410156 -11.578125 9.765625 -11.578125 C 7.828125 -11.578125 6.769531 -11.460938 6.59375 -11.234375 C 6.320312 -10.898438 6.128906 -10.382812 6.015625 -9.6875 C 5.898438 -8.988281 5.84375 -8.316406 5.84375 -7.671875 C 5.84375 -6.503906 5.972656 -5.597656 6.234375 -4.953125 C 6.492188 -4.304688 6.894531 -3.847656 7.4375 -3.578125 C 7.976562 -3.316406 8.710938 -3.1875 9.640625 -3.1875 L 9.734375 -3.1875 L 9.734375 -8.28125 Z M 14.34375 -8.28125 "/></g></g></g></svg>